# xmcd
#
# Track frame offsets:
#	150
#	2931
#	15414
#	27745
#	38079
#	60401
#	73578
#	87766
#	90547
#	107770
#	122275
#	137431
#	151801
#	154582
#	167330
#	181710
#	193909
#	208018
#	224036
#	226817
#	238640
#	252865
#	272693
#
# Disc length: 3841 seconds
#
# Revision: 0
# Processed by: cddbd v1.5.2PL0 Copyright (c) Steve Scherf et al.
# Submitted via: EasyCDDAExtractor 12.0.7.1
#
DISCID=250eff17
DTITLE=Tayrone Cigano and Arreio de Ouro - Essa é a Festa - 25DEZ(Barreiras)
DYEAR=2011
DGENRE=Brega
TTITLE0=Nome da faixa 1
TTITLE1=Nome da faixa 2
TTITLE2=Nome da faixa 3
TTITLE3=Nome da faixa 4
TTITLE4=Nome da faixa 5
TTITLE5=Nome da faixa 6
TTITLE6=Nome da faixa 7
TTITLE7=Nome da faixa 8
TTITLE8=Nome da faixa 9
TTITLE9=Nome da faixa 10
TTITLE10=Nome da faixa 11
TTITLE11=Nome da faixa 12
TTITLE12=Nome da faixa 13
TTITLE13=Nome da faixa 14
TTITLE14=Nome da faixa 15
TTITLE15=Nome da faixa 16
TTITLE16=Nome da faixa 17
TTITLE17=Nome da faixa 18
TTITLE18=Nome da faixa 19
TTITLE19=Nome da faixa 20
TTITLE20=Nome da faixa 21
TTITLE21=Nome da faixa 22
TTITLE22=Nome da faixa 23
EXTD=
EXTT0=
EXTT1=
EXTT2=
EXTT3=
EXTT4=
EXTT5=
EXTT6=
EXTT7=
EXTT8=
EXTT9=
EXTT10=
EXTT11=
EXTT12=
EXTT13=
EXTT14=
EXTT15=
EXTT16=
EXTT17=
EXTT18=
EXTT19=
EXTT20=
EXTT21=
EXTT22=
PLAYORDER=
